<svg viewBox="1 0 32 32" xmlns="http://www.w3.org/2000/svg"><path fill="#000" d="M4.632 4.55v22.9H6.28V28H4V4h2.28v0.55zm7.043 7.26v1.157h0.033c0.309-0.443 0.683 -0.784 1.117 -1.024c0.433-0.245 0.936 -0.365 1.5 -0.365c0.54 0 1.033 0.107 1.481 0.314c0.448 0.208 0.785 0.582 1.02 1.108c0.254-0.374 0.6 -0.706 1.034 -0.992c0.434-0.287 0.95 -0.43 1.546 -0.43c0.453 0 0.872 0.056 1.26 0.167c0.388 0.11 0.716 0.286 0.993 0.53c0.276 0.245 0.489 0.559 0.646 0.951c0.152 0.392 0.23 0.863 0.23 1.417v5.728h-2.349V15.52c0-0.286 -0.01 -0.559 -0.032 -0.812a1.755 1.755 0 00-0.18-0.66a1.106 1.106 0 00-0.438-0.448c-0.194-0.11 -0.457 -0.166 -0.785 -0.166c-0.332 0-0.6 0.064 -0.803 0.189a1.38 1.38 0 00-0.48 0.499a1.946 1.946 0 00-0.231 0.696a5.56 5.56 0 00-0.06 0.785v4.768h-2.35v-4.8c0-0.254 -0.004 -0.503 -0.018 -0.752a2.074 2.074 0 00-0.143-0.688a1.052 1.052 0 00-0.415-0.503c-0.194-0.125 -0.476 -0.19 -0.854 -0.19c-0.111 0-0.259 0.024 -0.439 0.074c-0.18 0.051-0.36 0.143 -0.53 0.282c-0.171 0.138-0.319 0.337 -0.439 0.595c-0.12 0.259-0.18 0.6 -0.18 1.02v4.966H9.46V11.81zm15.693 15.64V4.55H25.72V4H28v24h-2.28v-0.55z"/></svg>
